<?xml version="1.0" encoding="UTF-8" standalone="no"?>
<!-- Created with Inkscape (http://www.inkscape.org/) -->
<svg
   xmlns:svg="http://www.w3.org/2000/svg"
   xmlns="http://www.w3.org/2000/svg"
   version="1.0"
   width="250"
   height="250"
   id="svg2">
  <defs
     id="defs4">
    <marker
       refX="0"
       refY="0"
       orient="auto"
       id="Arrow2Mend"
       style="overflow:visible">
      <path
         d="M 8.7185878,4.0337352 L -2.2072895,0.016013256 L 8.7185884,-4.0017078 C 6.97309,-1.6296469 6.9831476,1.6157441 8.7185878,4.0337352 z"
         transform="scale(-0.6,-0.6)"
         id="path3289"
         style="font-size:12px;fill-rule:evenodd;stroke-width:0.625;stroke-linejoin:round" />
    </marker>
  </defs>
  <g
     id="layer1">
    <g
       transform="translate(0,-5)"
       id="g3169">
      <path
         d="M 15,20 L 95,20 L 115,40 L 115,160 L 15,160 L 15,20 z"
         id="rect2385"
         style="fill:#e0ffff;fill-opacity:1;stroke:#4682b4;stroke-width:1;stroke-linecap:butt;stroke-linejoin:round;stroke-miterlimit:4;stroke-dasharray:none;stroke-dashoffset:0;stroke-opacity:1" />
      <path
         d="M 95,20 L 95,40 L 115,40 L 95,20 z"
         id="path3166"
         style="fill:#4682b4;fill-rule:evenodd;stroke:#4682b4;stroke-width:1;stroke-linecap:butt;stroke-linejoin:round;stroke-miterlimit:4;stroke-dasharray:none;stroke-opacity:1" />
      <path
         d="M 61.908203,31.958008 C 62.441399,31.958016 62.845695,31.840828 63.121094,31.606445 C 63.396476,31.372079 63.534171,31.026376 63.53418,30.569336 C 63.534171,30.118174 63.396476,29.775401 63.121094,29.541016 C 62.845695,29.300792 62.441399,29.180675 61.908203,29.180664 L 60.036133,29.180664 L 60.036133,31.958008 L 61.908203,31.958008 M 62.022461,37.697266 C 62.702141,37.697268 63.211906,37.553713 63.551758,37.266602 C 63.897452,36.979495 64.070303,36.545902 64.070312,35.96582 C 64.070303,35.397466 63.900382,34.972661 63.560547,34.691406 C 63.220695,34.404302 62.708,34.260748 62.022461,34.260742 L 60.036133,34.260742 L 60.036133,37.697266 L 62.022461,37.697266 M 65.168945,32.977539 C 65.895497,33.188483 66.457996,33.578131 66.856445,34.146484 C 67.254871,34.714849 67.454089,35.412114 67.454102,36.238281 C 67.454089,37.503909 67.026355,38.447267 66.170898,39.068359 C 65.315419,39.689453 64.014639,40 62.268555,40 L 56.652344,40 L 56.652344,26.87793 L 61.732422,26.87793 C 63.554679,26.877943 64.873037,27.153333 65.6875,27.704102 C 66.507801,28.254895 66.917957,29.13673 66.917969,30.349609 C 66.917957,30.98829 66.768543,31.533212 66.469727,31.984375 C 66.170887,32.429695 65.737294,32.760749 65.168945,32.977539"
         id="text3233"
         style="font-size:12px;font-style:normal;font-weight:normal;fill:#4682b4;fill-opacity:1;stroke:none;stroke-width:1px;stroke-linecap:butt;stroke-linejoin:miter;stroke-opacity:1;font-family:Bitstream Vera Sans" />
    </g>
    <g
       transform="translate(120,-5)"
       id="g3173"
       style="fill:#faebd7">
      <path
         d="M 15,20 L 95,20 L 115,40 L 115,160 L 15,160 L 15,20 z"
         id="path3175"
         style="fill:#ffe4b5;fill-opacity:1;stroke:#daa520;stroke-width:1;stroke-linecap:butt;stroke-linejoin:round;stroke-miterlimit:4;stroke-dasharray:none;stroke-dashoffset:0;stroke-opacity:1" />
      <path
         d="M 95,20 L 95,40 L 115,40 L 95,20 z"
         id="path3177"
         style="fill:#daa520;fill-rule:evenodd;stroke:#daa520;stroke-width:1;stroke-linecap:butt;stroke-linejoin:round;stroke-miterlimit:4;stroke-dasharray:none;stroke-opacity:1" />
      <path
         d="M 64.615234,37.609375 L 59.324219,37.609375 L 58.489258,40 L 55.087891,40 L 59.948242,26.87793 L 63.982422,26.87793 L 68.842773,40 L 65.441406,40 L 64.615234,37.609375 M 60.167969,35.174805 L 63.762695,35.174805 L 61.969727,29.954102 L 60.167969,35.174805"
         id="text3229"
         style="font-size:12px;font-style:normal;font-weight:normal;fill:#daa520;fill-opacity:1;stroke:none;stroke-width:1px;stroke-linecap:butt;stroke-linejoin:miter;stroke-opacity:1;font-family:Bitstream Vera Sans" />
    </g>
    <rect
       width="100"
       height="65"
       x="15"
       y="170"
       id="rect3179"
       style="opacity:1;fill:#ffffff;fill-opacity:1;fill-rule:nonzero;stroke:#808080;stroke-width:1;stroke-linecap:butt;stroke-linejoin:round;stroke-miterlimit:4;stroke-dasharray:none;stroke-dashoffset:0;stroke-opacity:1" />
    <rect
       width="100"
       height="65"
       x="135"
       y="170"
       id="rect3181"
       style="opacity:1;fill:#ffffff;fill-opacity:1;fill-rule:nonzero;stroke:#808080;stroke-width:1;stroke-linecap:butt;stroke-linejoin:round;stroke-miterlimit:4;stroke-dasharray:none;stroke-dashoffset:0;stroke-opacity:1" />
    <path
       d="M 31.228516,180.88281 L 31.228516,181.7793 L 30.003906,181.7793 C 29.617183,181.77931 29.347652,181.85938 29.195312,182.01953 C 29.046871,182.17579 28.972652,182.45509 28.972656,182.85742 L 28.972656,183.4375 L 31.228516,183.4375 L 31.228516,184.27539 L 28.972656,184.27539 L 28.972656,190 L 27.894531,190 L 27.894531,184.27539 L 26.142578,184.27539 L 26.142578,183.4375 L 27.894531,183.4375 L 27.894531,182.98047 C 27.894528,182.26173 28.058591,181.73243 28.386719,181.39258 C 28.718746,181.05274 29.234371,180.88282 29.933594,180.88281 L 31.228516,180.88281 M 35.828125,184.19336 C 35.281247,184.19337 34.867185,184.40626 34.585938,184.83203 C 34.304685,185.25782 34.164061,185.88868 34.164062,186.72461 C 34.164061,187.55664 34.304685,188.1875 34.585938,188.61719 C 34.867185,189.04297 35.281247,189.25586 35.828125,189.25586 C 36.378902,189.25586 36.794917,189.04297 37.076172,188.61719 C 37.357417,188.1875 37.498042,187.55664 37.498047,186.72461 C 37.498042,185.88868 37.357417,185.25782 37.076172,184.83203 C 36.794917,184.40626 36.378902,184.19337 35.828125,184.19336 M 35.828125,183.2793 C 36.738277,183.2793 37.433589,183.57423 37.914062,184.16406 C 38.398431,184.75391 38.640619,185.60743 38.640625,186.72461 C 38.640619,187.84571 38.400384,188.70117 37.919922,189.29102 C 37.439448,189.87695 36.742183,190.16992 35.828125,190.16992 C 34.917966,190.16992 34.222654,189.87695 33.742188,189.29102 C 33.261718,188.70117 33.021484,187.84571 33.021484,186.72461 C 33.021484,185.60743 33.261718,184.75391 33.742188,184.16406 C 34.222654,183.57423 34.917966,183.2793 35.828125,183.2793 M 43.046875,184.19336 C 42.499997,184.19337 42.085935,184.40626 41.804688,184.83203 C 41.523435,185.25782 41.382811,185.88868 41.382812,186.72461 C 41.382811,187.55664 41.523435,188.1875 41.804688,188.61719 C 42.085935,189.04297 42.499997,189.25586 43.046875,189.25586 C 43.597652,189.25586 44.013667,189.04297 44.294922,188.61719 C 44.576167,188.1875 44.716792,187.55664 44.716797,186.72461 C 44.716792,185.88868 44.576167,185.25782 44.294922,184.83203 C 44.013667,184.40626 43.597652,184.19337 43.046875,184.19336 M 43.046875,183.2793 C 43.957027,183.2793 44.652339,183.57423 45.132812,184.16406 C 45.617181,184.75391 45.859369,185.60743 45.859375,186.72461 C 45.859369,187.84571 45.619134,188.70117 45.138672,189.29102 C 44.658198,189.87695 43.960933,190.16992 43.046875,190.16992 C 42.136716,190.16992 41.441404,189.87695 40.960938,189.29102 C 40.480468,188.70117 40.240234,187.84571 40.240234,186.72461 C 40.240234,185.60743 40.480468,184.75391 40.960938,184.16406 C 41.441404,183.57423 42.136716,183.2793 43.046875,183.2793"
       id="text3183"
       style="font-size:12px;font-style:normal;font-variant:normal;font-weight:normal;font-stretch:normal;text-align:start;line-height:125%;writing-mode:lr-tb;text-anchor:start;fill:#696969;fill-opacity:1;stroke:none;stroke-width:1px;stroke-linecap:butt;stroke-linejoin:miter;stroke-opacity:1;font-family:Bitstream Vera Sans Mono;-inkscape-font-specification:Bitstream Vera Sans Mono" />
    <path
       d="M 30.162109,52.353516 L 29.59375,52.353516 C 29.589839,52.060555 29.505855,51.837899 29.341797,51.685547 C 29.181636,51.533212 28.947262,51.45704 28.638672,51.457031 C 28.236325,51.45704 27.953122,51.568368 27.789062,51.791016 C 27.624997,52.009774 27.542966,52.402351 27.542969,52.96875 L 27.542969,53.771484 L 29.283203,53.771484 L 29.283203,54.398438 L 27.542969,54.398438 L 27.542969,59.378906 L 28.925781,59.378906 L 28.925781,60 L 25.433594,60 L 25.433594,59.378906 L 26.464844,59.378906 L 26.464844,54.398438 L 25.433594,54.398438 L 25.433594,53.771484 L 26.464844,53.771484 L 26.464844,52.992188 C 26.464842,52.296883 26.64453,51.771493 27.003906,51.416016 C 27.367185,51.060556 27.898435,50.882822 28.597656,50.882812 C 28.859371,50.882822 29.12109,50.906259 29.382812,50.953125 C 29.644527,51.000009 29.904292,51.072275 30.162109,51.169922 L 30.162109,52.353516 M 33.039062,59.589844 C 33.617183,59.589844 34.05273,59.361329 34.345703,58.904297 C 34.642573,58.447267 34.79101,57.77344 34.791016,56.882812 C 34.79101,55.992192 34.642573,55.320317 34.345703,54.867188 C 34.05273,54.410162 33.617183,54.181646 33.039062,54.181641 C 32.460934,54.181646 32.023435,54.410162 31.726562,54.867188 C 31.433592,55.320317 31.287108,55.992192 31.287109,56.882812 C 31.287108,57.77344 31.435545,58.447267 31.732422,58.904297 C 32.029294,59.361329 32.464841,59.589844 33.039062,59.589844 M 33.039062,60.169922 C 32.13281,60.169922 31.404295,59.871094 30.853516,59.273438 C 30.302734,58.671876 30.027343,57.875002 30.027344,56.882812 C 30.027343,55.890629 30.30078,55.095708 30.847656,54.498047 C 31.398436,53.900397 32.128904,53.601569 33.039062,53.601562 C 33.949214,53.601569 34.677729,53.900397 35.224609,54.498047 C 35.775384,55.095708 36.050775,55.890629 36.050781,56.882812 C 36.050775,57.875002 35.775384,58.671876 35.224609,59.273438 C 34.677729,59.871094 33.949214,60.169922 33.039062,60.169922 M 40.257812,59.589844 C 40.835933,59.589844 41.27148,59.361329 41.564453,58.904297 C 41.861323,58.447267 42.00976,57.77344 42.009766,56.882812 C 42.00976,55.992192 41.861323,55.320317 41.564453,54.867188 C 41.27148,54.410162 40.835933,54.181646 40.257812,54.181641 C 39.679684,54.181646 39.242185,54.410162 38.945312,54.867188 C 38.652342,55.320317 38.505858,55.992192 38.505859,56.882812 C 38.505858,57.77344 38.654295,58.447267 38.951172,58.904297 C 39.248044,59.361329 39.683591,59.589844 40.257812,59.589844 M 40.257812,60.169922 C 39.35156,60.169922 38.623045,59.871094 38.072266,59.273438 C 37.521484,58.671876 37.246093,57.875002 37.246094,56.882812 C 37.246093,55.890629 37.51953,55.095708 38.066406,54.498047 C 38.617186,53.900397 39.347654,53.601569 40.257812,53.601562 C 41.167964,53.601569 41.896479,53.900397 42.443359,54.498047 C 42.994134,55.095708 43.269525,55.890629 43.269531,56.882812 C 43.269525,57.875002 42.994134,58.671876 42.443359,59.273438 C 41.896479,59.871094 41.167964,60.169922 40.257812,60.169922"
       id="text3199"
       style="font-size:12px;font-style:normal;font-variant:normal;font-weight:normal;font-stretch:normal;text-align:start;line-height:139.99999762%;writing-mode:lr-tb;text-anchor:start;fill:#000000;fill-opacity:1;stroke:none;stroke-width:1px;stroke-linecap:butt;stroke-linejoin:miter;stroke-opacity:1;font-family:Bitstream Vera Serif;-inkscape-font-specification:Bitstream Vera Serif" />
    <path
       d="M 146.25977,181.25195 L 147.44922,181.25195 L 147.44922,189.00391 L 151.67383,189.00391 L 151.67383,190 L 146.25977,190 L 146.25977,181.25195 M 155.82812,184.19336 C 155.28125,184.19337 154.86718,184.40626 154.58594,184.83203 C 154.30469,185.25782 154.16406,185.88868 154.16406,186.72461 C 154.16406,187.55664 154.30469,188.1875 154.58594,188.61719 C 154.86718,189.04297 155.28125,189.25586 155.82812,189.25586 C 156.3789,189.25586 156.79492,189.04297 157.07617,188.61719 C 157.35742,188.1875 157.49804,187.55664 157.49805,186.72461 C 157.49804,185.88868 157.35742,185.25782 157.07617,184.83203 C 156.79492,184.40626 156.3789,184.19337 155.82812,184.19336 M 155.82812,183.2793 C 156.73828,183.2793 157.43359,183.57423 157.91406,184.16406 C 158.39843,184.75391 158.64062,185.60743 158.64062,186.72461 C 158.64062,187.84571 158.40038,188.70117 157.91992,189.29102 C 157.43945,189.87695 156.74218,190.16992 155.82812,190.16992 C 154.91797,190.16992 154.22265,189.87695 153.74219,189.29102 C 153.26172,188.70117 153.02148,187.84571 153.02148,186.72461 C 153.02148,185.60743 153.26172,184.75391 153.74219,184.16406 C 154.22265,183.57423 154.91797,183.2793 155.82812,183.2793 M 166.20508,184.79102 C 165.9746,184.61133 165.74023,184.48047 165.50195,184.39844 C 165.26367,184.31641 165.00195,184.2754 164.7168,184.27539 C 164.04492,184.2754 163.53125,184.48633 163.17578,184.9082 C 162.82031,185.33008 162.64257,185.93946 162.64258,186.73633 L 162.64258,190 L 161.55859,190 L 161.55859,183.4375 L 162.64258,183.4375 L 162.64258,184.7207 C 162.82226,184.25587 163.09765,183.9004 163.46875,183.6543 C 163.84375,183.4043 164.2871,183.2793 164.79883,183.2793 C 165.06445,183.2793 165.31249,183.31251 165.54297,183.37891 C 165.77343,183.44532 165.99413,183.54883 166.20508,183.68945 L 166.20508,184.79102 M 173.17188,186.44922 L 173.17188,186.97656 L 168.50195,186.97656 L 168.50195,187.01172 C 168.50195,187.72656 168.6875,188.2793 169.05859,188.66992 C 169.43359,189.06055 169.96093,189.25586 170.64062,189.25586 C 170.98437,189.25586 171.34375,189.20117 171.71875,189.0918 C 172.09374,188.98242 172.49413,188.81641 172.91992,188.59375 L 172.91992,189.66602 C 172.50976,189.83398 172.11328,189.95898 171.73047,190.04102 C 171.35156,190.12695 170.98437,190.16992 170.62891,190.16992 C 169.60937,190.16992 168.8125,189.86523 168.23828,189.25586 C 167.66406,188.64258 167.37695,187.79883 167.37695,186.72461 C 167.37695,185.67774 167.6582,184.8418 168.2207,184.2168 C 168.7832,183.5918 169.5332,183.2793 170.4707,183.2793 C 171.30664,183.2793 171.96484,183.56251 172.44531,184.12891 C 172.92968,184.69532 173.17187,185.46875 173.17188,186.44922 M 172.09375,186.13281 C 172.07812,185.5 171.92773,185.01954 171.64258,184.69141 C 171.36132,184.35938 170.95507,184.19337 170.42383,184.19336 C 169.90429,184.19337 169.47656,184.36524 169.14062,184.70898 C 168.80469,185.05274 168.60547,185.5293 168.54297,186.13867 L 172.09375,186.13281 M 177.83594,184.10547 C 177.96875,183.82422 178.13671,183.61719 178.33984,183.48438 C 178.54687,183.34766 178.79492,183.2793 179.08398,183.2793 C 179.61132,183.2793 179.98242,183.48438 180.19727,183.89453 C 180.41601,184.30079 180.52538,185.06836 180.52539,186.19727 L 180.52539,190 L 179.54102,190 L 179.54102,186.24414 C 179.54101,185.31836 179.48828,184.74415 179.38281,184.52148 C 179.28124,184.29493 179.09374,184.18165 178.82031,184.18164 C 178.50781,184.18165 178.29296,184.30274 178.17578,184.54492 C 178.0625,184.78321 178.00586,185.34961 178.00586,186.24414 L 178.00586,190 L 177.02148,190 L 177.02148,186.24414 C 177.02148,185.30665 176.96484,184.72852 176.85156,184.50977 C 176.74218,184.29102 176.54297,184.18165 176.25391,184.18164 C 175.96875,184.18165 175.76953,184.30274 175.65625,184.54492 C 175.54687,184.78321 175.49219,185.34961 175.49219,186.24414 L 175.49219,190 L 174.51367,190 L 174.51367,183.4375 L 175.49219,183.4375 L 175.49219,184 C 175.62109,183.76563 175.78125,183.5879 175.97266,183.4668 C 176.16797,183.3418 176.38867,183.2793 176.63477,183.2793 C 176.93164,183.2793 177.17773,183.34766 177.37305,183.48438 C 177.57226,183.6211 177.72656,183.82813 177.83594,184.10547 M 189.8125,183.4375 L 192.57227,183.4375 L 192.57227,189.16211 L 194.71094,189.16211 L 194.71094,190 L 189.35547,190 L 189.35547,189.16211 L 191.49414,189.16211 L 191.49414,184.27539 L 189.8125,184.27539 L 189.8125,183.4375 M 191.49414,180.88281 L 192.57227,180.88281 L 192.57227,182.24805 L 191.49414,182.24805 L 191.49414,180.88281 M 197.72852,189.17383 L 197.72852,192.49609 L 196.64453,192.49609 L 196.64453,183.4375 L 197.72852,183.4375 L 197.72852,184.27539 C 197.9082,183.95118 198.14648,183.70508 198.44336,183.53711 C 198.74414,183.36524 199.08984,183.2793 199.48047,183.2793 C 200.27343,183.2793 200.89453,183.58594 201.34375,184.19922 C 201.79687,184.81251 202.02343,185.66211 202.02344,186.74805 C 202.02343,187.81446 201.79687,188.65235 201.34375,189.26172 C 200.89062,189.86719 200.26953,190.16992 199.48047,190.16992 C 199.08203,190.16992 198.73242,190.08594 198.43164,189.91797 C 198.13476,189.74609 197.90039,189.49805 197.72852,189.17383 M 200.89258,186.72461 C 200.89257,185.88868 200.75976,185.25782 200.49414,184.83203 C 200.23242,184.40626 199.84179,184.19337 199.32227,184.19336 C 198.79882,184.19337 198.40234,184.40821 198.13281,184.83789 C 197.86328,185.26368 197.72851,185.89258 197.72852,186.72461 C 197.72851,187.55274 197.86328,188.18164 198.13281,188.61133 C 198.40234,189.04102 198.79882,189.25586 199.32227,189.25586 C 199.84179,189.25586 200.23242,189.04297 200.49414,188.61719 C 200.75976,188.19141 200.89257,187.56055 200.89258,186.72461 M 208.45117,183.66602 L 208.45117,184.7207 C 208.14257,184.54102 207.83203,184.40626 207.51953,184.31641 C 207.20703,184.22657 206.88867,184.18165 206.56445,184.18164 C 206.07617,184.18165 205.71093,184.26172 205.46875,184.42188 C 205.23047,184.57813 205.11133,184.81836 205.11133,185.14258 C 205.11133,185.43555 205.20117,185.6543 205.38086,185.79883 C 205.56054,185.94336 206.00781,186.08399 206.72266,186.2207 L 207.15625,186.30273 C 207.6914,186.4043 208.0957,186.60743 208.36914,186.91211 C 208.64648,187.2168 208.78515,187.61328 208.78516,188.10156 C 208.78515,188.75 208.55468,189.25781 208.09375,189.625 C 207.63281,189.98828 206.99218,190.16992 206.17188,190.16992 C 205.84765,190.16992 205.50781,190.13477 205.15234,190.06445 C 204.79687,189.99805 204.41211,189.89648 203.99805,189.75977 L 203.99805,188.64648 C 204.40039,188.85352 204.78515,189.00977 205.15234,189.11523 C 205.51953,189.2168 205.86718,189.26758 206.19531,189.26758 C 206.67187,189.26758 207.04101,189.17188 207.30273,188.98047 C 207.56445,188.78516 207.69531,188.51367 207.69531,188.16602 C 207.69531,187.66602 207.21679,187.32032 206.25977,187.12891 L 206.21289,187.11719 L 205.80859,187.03516 C 205.1875,186.91407 204.73437,186.71094 204.44922,186.42578 C 204.16406,186.13672 204.02148,185.74414 204.02148,185.24805 C 204.02148,184.61915 204.23437,184.13477 204.66016,183.79492 C 205.08594,183.45118 205.69336,183.2793 206.48242,183.2793 C 206.83398,183.2793 207.17187,183.31251 207.49609,183.37891 C 207.82031,183.44141 208.13867,183.53712 208.45117,183.66602 M 211.11133,187.51562 L 211.11133,183.44922 L 212.18945,183.44922 L 212.18945,187.51562 C 212.18945,188.10547 212.29297,188.53906 212.5,188.81641 C 212.71093,189.09375 213.03515,189.23242 213.47266,189.23242 C 213.98046,189.23242 214.36914,189.05469 214.63867,188.69922 C 214.9082,188.33985 215.04296,187.82617 215.04297,187.1582 L 215.04297,183.44922 L 216.12695,183.44922 L 216.12695,190 L 215.04297,190 L 215.04297,189.01562 C 214.85156,189.39453 214.58984,189.68164 214.25781,189.87695 C 213.92968,190.07227 213.54492,190.16992 213.10352,190.16992 C 212.43164,190.16992 211.93164,189.95117 211.60352,189.51367 C 211.27539,189.07227 211.11133,188.40625 211.11133,187.51562 M 221.14844,184.10547 C 221.28125,183.82422 221.44921,183.61719 221.65234,183.48438 C 221.85937,183.34766 222.10742,183.2793 222.39648,183.2793 C 222.92382,183.2793 223.29492,183.48438 223.50977,183.89453 C 223.72851,184.30079 223.83788,185.06836 223.83789,186.19727 L 223.83789,190 L 222.85352,190 L 222.85352,186.24414 C 222.85351,185.31836 222.80078,184.74415 222.69531,184.52148 C 222.59374,184.29493 222.40624,184.18165 222.13281,184.18164 C 221.82031,184.18165 221.60546,184.30274 221.48828,184.54492 C 221.375,184.78321 221.31836,185.34961 221.31836,186.24414 L 221.31836,190 L 220.33398,190 L 220.33398,186.24414 C 220.33398,185.30665 220.27734,184.72852 220.16406,184.50977 C 220.05468,184.29102 219.85547,184.18165 219.56641,184.18164 C 219.28125,184.18165 219.08203,184.30274 218.96875,184.54492 C 218.85937,184.78321 218.80469,185.34961 218.80469,186.24414 L 218.80469,190 L 217.82617,190 L 217.82617,183.4375 L 218.80469,183.4375 L 218.80469,184 C 218.93359,183.76563 219.09375,183.5879 219.28516,183.4668 C 219.48047,183.3418 219.70117,183.2793 219.94727,183.2793 C 220.24414,183.2793 220.49023,183.34766 220.68555,183.48438 C 220.88476,183.6211 221.03906,183.82813 221.14844,184.10547 M 150.92969,206.11328 L 150.92969,206.95703 L 150.55469,206.95703 C 149.58203,206.95703 148.92968,206.8125 148.59766,206.52344 C 148.26953,206.23437 148.10547,205.6582 148.10547,204.79492 L 148.10547,203.39453 C 148.10547,202.80469 148,202.39649 147.78906,202.16992 C 147.58203,201.94336 147.20508,201.83008 146.6582,201.83008 L 146.29492,201.83008 L 146.29492,200.99219 L 146.6582,200.99219 C 147.20898,200.99219 147.58789,200.88086 147.79492,200.6582 C 148.00195,200.43555 148.10547,200.03125 148.10547,199.44531 L 148.10547,198.03906 C 148.10547,197.17579 148.26953,196.60157 148.59766,196.31641 C 148.92968,196.02735 149.58203,195.88282 150.55469,195.88281 L 150.92969,195.88281 L 150.92969,196.7207 L 150.51953,196.7207 C 149.97265,196.72071 149.61523,196.80665 149.44727,196.97852 C 149.2832,197.14649 149.20117,197.50782 149.20117,198.0625 L 149.20117,199.51562 C 149.20117,200.12891 149.11132,200.57422 148.93164,200.85156 C 148.75586,201.12891 148.45312,201.31641 148.02344,201.41406 C 148.45703,201.51953 148.76171,201.71094 148.9375,201.98828 C 149.11328,202.26563 149.20117,202.70899 149.20117,203.31836 L 149.20117,204.77148 C 149.20117,205.33008 149.2832,205.69336 149.44727,205.86133 C 149.61523,206.0293 149.97265,206.11328 150.51953,206.11328 L 150.92969,206.11328 M 158.14844,206.11328 L 158.14844,206.95703 L 157.77344,206.95703 C 156.80078,206.95703 156.14843,206.8125 155.81641,206.52344 C 155.48828,206.23437 155.32422,205.6582 155.32422,204.79492 L 155.32422,203.39453 C 155.32422,202.80469 155.21875,202.39649 155.00781,202.16992 C 154.80078,201.94336 154.42383,201.83008 153.87695,201.83008 L 153.51367,201.83008 L 153.51367,200.99219 L 153.87695,200.99219 C 154.42773,200.99219 154.80664,200.88086 155.01367,200.6582 C 155.2207,200.43555 155.32422,200.03125 155.32422,199.44531 L 155.32422,198.03906 C 155.32422,197.17579 155.48828,196.60157 155.81641,196.31641 C 156.14843,196.02735 156.80078,195.88282 157.77344,195.88281 L 158.14844,195.88281 L 158.14844,196.7207 L 157.73828,196.7207 C 157.1914,196.72071 156.83398,196.80665 156.66602,196.97852 C 156.50195,197.14649 156.41992,197.50782 156.41992,198.0625 L 156.41992,199.51562 C 156.41992,200.12891 156.33007,200.57422 156.15039,200.85156 C 155.97461,201.12891 155.67187,201.31641 155.24219,201.41406 C 155.67578,201.51953 155.98046,201.71094 156.15625,201.98828 C 156.33203,202.26563 156.41992,202.70899 156.41992,203.31836 L 156.41992,204.77148 C 156.41992,205.33008 156.50195,205.69336 156.66602,205.86133 C 156.83398,206.0293 157.1914,206.11328 157.73828,206.11328 L 158.14844,206.11328 M 161.59961,200.82227 L 161.59961,204.02734 L 163,204.02734 C 163.6875,204.02734 164.17773,203.9082 164.4707,203.66992 C 164.76367,203.42774 164.91015,203.03125 164.91016,202.48047 C 164.91015,201.91016 164.75585,201.49219 164.44727,201.22656 C 164.13867,200.95704 163.65625,200.82227 163,200.82227 L 161.59961,200.82227 M 161.59961,197.22461 L 161.59961,199.86133 L 162.97656,199.86133 C 163.54687,199.86133 163.95898,199.75196 164.21289,199.5332 C 164.4707,199.31446 164.5996,198.96094 164.59961,198.47266 C 164.5996,198.03126 164.47265,197.7129 164.21875,197.51758 C 163.96875,197.32227 163.55468,197.22462 162.97656,197.22461 L 161.59961,197.22461 M 160.41016,196.25195 L 163,196.25195 C 163.89453,196.25196 164.58398,196.44532 165.06836,196.83203 C 165.55273,197.21876 165.79492,197.76563 165.79492,198.47266 C 165.79492,199.00782 165.66601,199.42969 165.4082,199.73828 C 165.15429,200.04688 164.77148,200.24024 164.25977,200.31836 C 164.83398,200.4043 165.2832,200.65039 165.60742,201.05664 C 165.93554,201.45899 166.0996,201.97266 166.09961,202.59766 C 166.0996,203.39063 165.83984,203.99024 165.32031,204.39648 C 164.80078,204.79883 164.02734,205 163,205 L 160.41016,205 L 160.41016,196.25195 M 167.95117,206.11328 L 168.34961,206.11328 C 168.90039,206.11328 169.25976,206.02734 169.42773,205.85547 C 169.5957,205.68359 169.67968,205.32227 169.67969,204.77148 L 169.67969,203.31836 C 169.67968,202.70899 169.76758,202.26563 169.94336,201.98828 C 170.11914,201.71094 170.42382,201.51953 170.85742,201.41406 C 170.42773,201.31641 170.12304,201.12891 169.94336,200.85156 C 169.76758,200.57422 169.67968,200.12891 169.67969,199.51562 L 169.67969,198.0625 C 169.67968,197.51173 169.5957,197.1504 169.42773,196.97852 C 169.25976,196.80665 168.90039,196.72071 168.34961,196.7207 L 167.95117,196.7207 L 167.95117,195.88281 L 168.31445,195.88281 C 169.28711,195.88282 169.9375,196.02735 170.26562,196.31641 C 170.59375,196.60157 170.75781,197.17579 170.75781,198.03906 L 170.75781,199.44531 C 170.75781,200.03125 170.86132,200.43555 171.06836,200.6582 C 171.27929,200.88086 171.66015,200.99219 172.21094,200.99219 L 172.58594,200.99219 L 172.58594,201.83008 L 172.21094,201.83008 C 171.66015,201.83008 171.27929,201.94336 171.06836,202.16992 C 170.86132,202.39649 170.75781,202.80469 170.75781,203.39453 L 170.75781,204.79492 C 170.75781,205.6582 170.59375,206.23437 170.26562,206.52344 C 169.9375,206.8125 169.28711,206.95703 168.31445,206.95703 L 167.95117,206.95703 L 167.95117,206.11328 M 175.16992,206.11328 L 175.56836,206.11328 C 176.11914,206.11328 176.47851,206.02734 176.64648,205.85547 C 176.81445,205.68359 176.89843,205.32227 176.89844,204.77148 L 176.89844,203.31836 C 176.89843,202.70899 176.98633,202.26563 177.16211,201.98828 C 177.33789,201.71094 177.64257,201.51953 178.07617,201.41406 C 177.64648,201.31641 177.34179,201.12891 177.16211,200.85156 C 176.98633,200.57422 176.89843,200.12891 176.89844,199.51562 L 176.89844,198.0625 C 176.89843,197.51173 176.81445,197.1504 176.64648,196.97852 C 176.47851,196.80665 176.11914,196.72071 175.56836,196.7207 L 175.16992,196.7207 L 175.16992,195.88281 L 175.5332,195.88281 C 176.50586,195.88282 177.15625,196.02735 177.48438,196.31641 C 177.8125,196.60157 177.97656,197.17579 177.97656,198.03906 L 177.97656,199.44531 C 177.97656,200.03125 178.08007,200.43555 178.28711,200.6582 C 178.49804,200.88086 178.8789,200.99219 179.42969,200.99219 L 179.80469,200.99219 L 179.80469,201.83008 L 179.42969,201.83008 C 178.8789,201.83008 178.49804,201.94336 178.28711,202.16992 C 178.08007,202.39649 177.97656,202.80469 177.97656,203.39453 L 177.97656,204.79492 C 177.97656,205.6582 177.8125,206.23437 177.48438,206.52344 C 177.15625,206.8125 176.50586,206.95703 175.5332,206.95703 L 175.16992,206.95703 L 175.16992,206.11328 M 146.14258,217.51562 L 146.14258,213.44922 L 147.2207,213.44922 L 147.2207,217.51562 C 147.2207,218.10547 147.32422,218.53906 147.53125,218.81641 C 147.74218,219.09375 148.0664,219.23242 148.50391,219.23242 C 149.01171,219.23242 149.40039,219.05469 149.66992,218.69922 C 149.93945,218.33985 150.07421,217.82617 150.07422,217.1582 L 150.07422,213.44922 L 151.1582,213.44922 L 151.1582,220 L 150.07422,220 L 150.07422,219.01562 C 149.88281,219.39453 149.62109,219.68164 149.28906,219.87695 C 148.96093,220.07227 148.57617,220.16992 148.13477,220.16992 C 147.46289,220.16992 146.96289,219.95117 146.63477,219.51367 C 146.30664,219.07227 146.14258,218.40625 146.14258,217.51562 M 155.96289,217.62109 C 155.96289,218.10547 156.05078,218.4707 156.22656,218.7168 C 156.40625,218.96289 156.66992,219.08594 157.01758,219.08594 L 158.27734,219.08594 L 158.27734,220 L 156.91211,220 C 156.26757,220 155.76757,219.79297 155.41211,219.37891 C 155.06054,218.96484 154.88476,218.37891 154.88477,217.62109 L 154.88477,211.66211 L 153.15625,211.66211 L 153.15625,210.81836 L 155.96289,210.81836 L 155.96289,217.62109 M 163.18164,217.62109 C 163.18164,218.10547 163.26953,218.4707 163.44531,218.7168 C 163.625,218.96289 163.88867,219.08594 164.23633,219.08594 L 165.49609,219.08594 L 165.49609,220 L 164.13086,220 C 163.48632,220 162.98632,219.79297 162.63086,219.37891 C 162.27929,218.96484 162.10351,218.37891 162.10352,217.62109 L 162.10352,211.66211 L 160.375,211.66211 L 160.375,210.81836 L 163.18164,210.81836 L 163.18164,217.62109 M 170.76953,216.70117 L 170.41211,216.70117 C 169.7832,216.70118 169.30859,216.8125 168.98828,217.03516 C 168.67187,217.25391 168.51367,217.58203 168.51367,218.01953 C 168.51367,218.41406 168.63281,218.7207 168.87109,218.93945 C 169.10937,219.1582 169.43945,219.26758 169.86133,219.26758 C 170.45507,219.26758 170.92187,219.0625 171.26172,218.65234 C 171.60156,218.23828 171.77343,217.66797 171.77734,216.94141 L 171.77734,216.70117 L 170.76953,216.70117 M 172.86133,216.25586 L 172.86133,220 L 171.77734,220 L 171.77734,219.02734 C 171.54687,219.41797 171.25585,219.70703 170.9043,219.89453 C 170.55664,220.07812 170.13281,220.16992 169.63281,220.16992 C 168.96484,220.16992 168.43164,219.98242 168.0332,219.60742 C 167.63476,219.22852 167.43555,218.72266 167.43555,218.08984 C 167.43555,217.35938 167.67969,216.80469 168.16797,216.42578 C 168.66015,216.04688 169.38086,215.85743 170.33008,215.85742 L 171.77734,215.85742 L 171.77734,215.6875 C 171.77343,215.16407 171.64062,214.78516 171.37891,214.55078 C 171.11718,214.31251 170.69921,214.19337 170.125,214.19336 C 169.75781,214.19337 169.38672,214.2461 169.01172,214.35156 C 168.63672,214.45704 168.27148,214.61133 167.91602,214.81445 L 167.91602,213.73633 C 168.31445,213.58399 168.69531,213.47071 169.05859,213.39648 C 169.42578,213.31837 169.78125,213.2793 170.125,213.2793 C 170.66796,213.2793 171.13085,213.35938 171.51367,213.51953 C 171.90039,213.67969 172.21289,213.91993 172.45117,214.24023 C 172.5996,214.43555 172.70507,214.67774 172.76758,214.9668 C 172.83007,215.25196 172.86132,215.68164 172.86133,216.25586 M 177.83594,214.10547 C 177.96875,213.82422 178.13671,213.61719 178.33984,213.48438 C 178.54687,213.34766 178.79492,213.2793 179.08398,213.2793 C 179.61132,213.2793 179.98242,213.48438 180.19727,213.89453 C 180.41601,214.30079 180.52538,215.06836 180.52539,216.19727 L 180.52539,220 L 179.54102,220 L 179.54102,216.24414 C 179.54101,215.31836 179.48828,214.74415 179.38281,214.52148 C 179.28124,214.29493 179.09374,214.18165 178.82031,214.18164 C 178.50781,214.18165 178.29296,214.30274 178.17578,214.54492 C 178.0625,214.78321 178.00586,215.34961 178.00586,216.24414 L 178.00586,220 L 177.02148,220 L 177.02148,216.24414 C 177.02148,215.30665 176.96484,214.72852 176.85156,214.50977 C 176.74218,214.29102 176.54297,214.18165 176.25391,214.18164 C 175.96875,214.18165 175.76953,214.30274 175.65625,214.54492 C 175.54687,214.78321 175.49219,215.34961 175.49219,216.24414 L 175.49219,220 L 174.51367,220 L 174.51367,213.4375 L 175.49219,213.4375 L 175.49219,214 C 175.62109,213.76563 175.78125,213.5879 175.97266,213.4668 C 176.16797,213.3418 176.38867,213.2793 176.63477,213.2793 C 176.93164,213.2793 177.17773,213.34766 177.37305,213.48438 C 177.57226,213.6211 177.72656,213.82813 177.83594,214.10547 M 187.31055,219.66602 C 187.02148,219.83398 186.72265,219.95898 186.41406,220.04102 C 186.10937,220.12695 185.79687,220.16992 185.47656,220.16992 C 184.46093,220.16992 183.66601,219.86523 183.0918,219.25586 C 182.52148,218.64649 182.23633,217.80274 182.23633,216.72461 C 182.23633,215.64649 182.52148,214.80274 183.0918,214.19336 C 183.66601,213.58399 184.46093,213.2793 185.47656,213.2793 C 185.79296,213.2793 186.10156,213.32032 186.40234,213.40234 C 186.70312,213.48438 187.00585,213.61133 187.31055,213.7832 L 187.31055,214.91406 C 187.02538,214.66016 186.73828,214.47657 186.44922,214.36328 C 186.16406,214.25001 185.83984,214.19337 185.47656,214.19336 C 184.80078,214.19337 184.28125,214.41211 183.91797,214.84961 C 183.55469,215.28711 183.37304,215.91211 183.37305,216.72461 C 183.37304,217.53321 183.55469,218.1582 183.91797,218.59961 C 184.28515,219.03711 184.80468,219.25586 185.47656,219.25586 C 185.85156,219.25586 186.18749,219.19922 186.48438,219.08594 C 186.78124,218.96875 187.05663,218.78906 187.31055,218.54688 L 187.31055,219.66602 M 191.92188,214.19336 C 191.375,214.19337 190.96093,214.40626 190.67969,214.83203 C 190.39844,215.25782 190.25781,215.88868 190.25781,216.72461 C 190.25781,217.55664 190.39844,218.1875 190.67969,218.61719 C 190.96093,219.04297 191.375,219.25586 191.92188,219.25586 C 192.47265,219.25586 192.88867,219.04297 193.16992,218.61719 C 193.45117,218.1875 193.59179,217.55664 193.5918,216.72461 C 193.59179,215.88868 193.45117,215.25782 193.16992,214.83203 C 192.88867,214.40626 192.47265,214.19337 191.92188,214.19336 M 191.92188,213.2793 C 192.83203,213.2793 193.52734,213.57423 194.00781,214.16406 C 194.49218,214.75391 194.73437,215.60743 194.73438,216.72461 C 194.73437,217.84571 194.49413,218.70117 194.01367,219.29102 C 193.5332,219.87695 192.83593,220.16992 191.92188,220.16992 C 191.01172,220.16992 190.3164,219.87695 189.83594,219.29102 C 189.35547,218.70117 189.11523,217.84571 189.11523,216.72461 C 189.11523,215.60743 189.35547,214.75391 189.83594,214.16406 C 190.3164,213.57423 191.01172,213.2793 191.92188,213.2793 M 198.39648,218.21289 L 199.87305,218.21289 L 199.87305,220 L 198.39648,220 L 198.39648,218.21289"
       id="text3203"
       style="font-size:12px;font-style:normal;font-variant:normal;font-weight:normal;font-stretch:normal;text-align:start;line-height:125%;writing-mode:lr-tb;text-anchor:start;fill:#696969;fill-opacity:1;stroke:none;stroke-width:1px;stroke-linecap:butt;stroke-linejoin:miter;stroke-opacity:1;font-family:Bitstream Vera Sans Mono;-inkscape-font-specification:Bitstream Vera Sans Mono" />
    <rect
       width="90"
       height="15"
       x="140"
       y="65"
       id="rect3219"
       style="opacity:1;fill:#e0ffff;fill-opacity:1;fill-rule:nonzero;stroke:#4682b4;stroke-width:1;stroke-linecap:butt;stroke-linejoin:round;stroke-miterlimit:4;stroke-dasharray:none;stroke-dashoffset:0;stroke-opacity:1" />
    <path
       d="M 145.66211,60 L 145.66211,59.378906 L 146.77539,59.378906 L 146.77539,51.878906 L 145.66211,51.878906 L 145.66211,51.251953 L 149.07812,51.251953 L 149.07812,51.878906 L 147.96484,51.878906 L 147.96484,59.279297 L 151.96094,59.279297 L 151.96094,57.814453 L 152.68164,57.814453 L 152.68164,60 L 145.66211,60 M 156.57812,59.589844 C 157.15625,59.589844 157.59179,59.361329 157.88477,58.904297 C 158.18164,58.447267 158.33007,57.77344 158.33008,56.882812 C 158.33007,55.992192 158.18164,55.320317 157.88477,54.867188 C 157.59179,54.410162 157.15625,54.181646 156.57812,54.181641 C 156,54.181646 155.5625,54.410162 155.26562,54.867188 C 154.97265,55.320317 154.82617,55.992192 154.82617,56.882812 C 154.82617,57.77344 154.97461,58.447267 155.27148,58.904297 C 155.56836,59.361329 156.0039,59.589844 156.57812,59.589844 M 156.57812,60.169922 C 155.67187,60.169922 154.94336,59.871094 154.39258,59.273438 C 153.8418,58.671876 153.56641,57.875002 153.56641,56.882812 C 153.56641,55.890629 153.83984,55.095708 154.38672,54.498047 C 154.9375,53.900397 155.66797,53.601569 156.57812,53.601562 C 157.48828,53.601569 158.21679,53.900397 158.76367,54.498047 C 159.31445,55.095708 159.58984,55.890629 159.58984,56.882812 C 159.58984,57.875002 159.31445,58.671876 158.76367,59.273438 C 158.21679,59.871094 157.48828,60.169922 156.57812,60.169922 M 165.92383,53.759766 L 165.92383,55.318359 L 165.30273,55.318359 C 165.2832,55.009771 165.19726,54.779302 165.04492,54.626953 C 164.89257,54.474615 164.66992,54.398443 164.37695,54.398438 C 163.8457,54.398443 163.4375,54.582037 163.15234,54.949219 C 162.87109,55.316411 162.73047,55.843754 162.73047,56.53125 L 162.73047,59.378906 L 163.97852,59.378906 L 163.97852,60 L 160.67969,60 L 160.67969,59.378906 L 161.65234,59.378906 L 161.65234,54.386719 L 160.62109,54.386719 L 160.62109,53.771484 L 162.73047,53.771484 L 162.73047,54.878906 C 162.9414,54.445318 163.21289,54.125006 163.54492,53.917969 C 163.87695,53.707038 164.28125,53.601569 164.75781,53.601562 C 164.93359,53.601569 165.11718,53.615241 165.30859,53.642578 C 165.5039,53.669928 165.70898,53.708991 165.92383,53.759766 M 172.43359,57 L 167.78711,57 L 167.78711,57.046875 C 167.78711,57.886721 167.94531,58.521486 168.26172,58.951172 C 168.57812,59.376954 169.04492,59.589844 169.66211,59.589844 C 170.13476,59.589844 170.52148,59.466797 170.82227,59.220703 C 171.12695,58.970704 171.33984,58.601564 171.46094,58.113281 L 172.32812,58.113281 C 172.15624,58.796876 171.83788,59.310548 171.37305,59.654297 C 170.9121,59.998047 170.30468,60.169922 169.55078,60.169922 C 168.64062,60.169922 167.9082,59.871094 167.35352,59.273438 C 166.80273,58.671876 166.52734,57.875002 166.52734,56.882812 C 166.52734,55.898442 166.79883,55.105474 167.3418,54.503906 C 167.88476,53.90235 168.59765,53.601569 169.48047,53.601562 C 170.42187,53.601569 171.14453,53.892584 171.64844,54.474609 C 172.15234,55.052739 172.41406,55.894535 172.43359,57 M 171.16211,56.378906 C 171.13867,55.652348 170.98437,55.105474 170.69922,54.738281 C 170.41796,54.367193 170.01171,54.181646 169.48047,54.181641 C 168.98437,54.181646 168.59375,54.367193 168.30859,54.738281 C 168.02344,55.10938 167.84961,55.656254 167.78711,56.378906 L 171.16211,56.378906 M 179.22461,54.984375 C 179.43163,54.527349 179.69531,54.1836 180.01562,53.953125 C 180.33984,53.718756 180.71679,53.601569 181.14648,53.601562 C 181.79882,53.601569 182.28515,53.804694 182.60547,54.210938 C 182.92577,54.613287 183.08593,55.222661 183.08594,56.039062 L 183.08594,59.378906 L 184.05859,59.378906 L 184.05859,60 L 181.07031,60 L 181.07031,59.378906 L 182.00781,59.378906 L 182.00781,56.162109 C 182.0078,55.525395 181.91405,55.072271 181.72656,54.802734 C 181.53905,54.533209 181.22851,54.398443 180.79492,54.398438 C 180.31445,54.398443 179.94726,54.580084 179.69336,54.943359 C 179.44335,55.306645 179.31835,55.835942 179.31836,56.53125 L 179.31836,59.378906 L 180.25586,59.378906 L 180.25586,60 L 177.30273,60 L 177.30273,59.378906 L 178.24023,59.378906 L 178.24023,56.121094 C 178.24023,55.500005 178.14648,55.058599 177.95898,54.796875 C 177.77148,54.531255 177.46093,54.398443 177.02734,54.398438 C 176.54687,54.398443 176.17968,54.580084 175.92578,54.943359 C 175.67578,55.306645 175.55078,55.835942 175.55078,56.53125 L 175.55078,59.378906 L 176.48828,59.378906 L 176.48828,60 L 173.5,60 L 173.5,59.378906 L 174.47266,59.378906 L 174.47266,54.386719 L 173.44141,54.386719 L 173.44141,53.771484 L 175.55078,53.771484 L 175.55078,54.878906 C 175.75,54.464849 176.0039,54.148443 176.3125,53.929688 C 176.62109,53.710944 176.9707,53.601569 177.36133,53.601562 C 177.8457,53.601569 178.24999,53.722663 178.57422,53.964844 C 178.89843,54.203131 179.11523,54.542974 179.22461,54.984375 M 189.38477,51.837891 C 189.38476,51.658211 189.44922,51.501962 189.57812,51.369141 C 189.71094,51.236337 189.86914,51.169931 190.05273,51.169922 C 190.23242,51.169931 190.38672,51.236337 190.51562,51.369141 C 190.64844,51.501962 190.71484,51.658211 190.71484,51.837891 C 190.71484,52.021492 190.65039,52.177742 190.52148,52.306641 C 190.39258,52.435554 190.23633,52.500008 190.05273,52.5 C 189.86914,52.500008 189.71094,52.435554 189.57812,52.306641 C 189.44922,52.177742 189.38476,52.021492 189.38477,51.837891 M 190.76172,59.378906 L 191.78125,59.378906 L 191.78125,60 L 188.65234,60 L 188.65234,59.378906 L 189.68359,59.378906 L 189.68359,54.398438 L 188.65234,54.398438 L 188.65234,53.771484 L 190.76172,53.771484 L 190.76172,59.378906 M 194.52344,56.578125 L 194.52344,57.193359 C 194.52344,57.943361 194.66601,58.515626 194.95117,58.910156 C 195.24023,59.300782 195.6582,59.496094 196.20508,59.496094 C 196.75585,59.496094 197.17187,59.275391 197.45312,58.833984 C 197.73828,58.39258 197.88085,57.74219 197.88086,56.882812 C 197.88085,56.019535 197.73828,55.369145 197.45312,54.931641 C 197.17187,54.494146 196.75585,54.275396 196.20508,54.275391 C 195.6582,54.275396 195.24023,54.472662 194.95117,54.867188 C 194.66601,55.261723 194.52344,55.832035 194.52344,56.578125 M 193.44531,54.398438 L 192.4082,54.398438 L 192.4082,53.771484 L 194.52344,53.771484 L 194.52344,54.744141 C 194.73437,54.353521 195.00195,54.066412 195.32617,53.882812 C 195.65429,53.695319 196.05859,53.601569 196.53906,53.601562 C 197.30468,53.601569 197.92968,53.904303 198.41406,54.509766 C 198.89843,55.115239 199.14062,55.906254 199.14062,56.882812 C 199.14062,57.859377 198.89843,58.652345 198.41406,59.261719 C 197.92968,59.867188 197.30468,60.169922 196.53906,60.169922 C 196.05859,60.169922 195.65429,60.078125 195.32617,59.894531 C 195.00195,59.707032 194.73437,59.417969 194.52344,59.027344 L 194.52344,61.869141 L 195.54297,61.869141 L 195.54297,62.496094 L 192.4082,62.496094 L 192.4082,61.869141 L 193.44531,61.869141 L 193.44531,54.398438 M 200.42383,59.654297 L 200.42383,58.201172 L 201.04492,58.201172 C 201.06055,58.666017 201.20508,59.013673 201.47852,59.244141 C 201.75586,59.47461 202.16406,59.589844 202.70312,59.589844 C 203.1875,59.589844 203.55664,59.5 203.81055,59.320312 C 204.06445,59.13672 204.1914,58.871095 204.19141,58.523438 C 204.1914,58.250002 204.09765,58.029299 203.91016,57.861328 C 203.72656,57.693362 203.33593,57.513674 202.73828,57.322266 L 201.95898,57.058594 C 201.42383,56.886722 201.03515,56.671878 200.79297,56.414062 C 200.55469,56.156254 200.43555,55.828129 200.43555,55.429688 C 200.43555,54.85938 200.64453,54.412115 201.0625,54.087891 C 201.48047,53.763678 202.05859,53.601569 202.79688,53.601562 C 203.125,53.601569 203.4707,53.644538 203.83398,53.730469 C 204.19726,53.816412 204.57226,53.941412 204.95898,54.105469 L 204.95898,55.464844 L 204.33789,55.464844 C 204.32226,55.062505 204.18164,54.748052 203.91602,54.521484 C 203.65039,54.294928 203.28906,54.181646 202.83203,54.181641 C 202.3789,54.181646 202.03515,54.261724 201.80078,54.421875 C 201.57031,54.582037 201.45508,54.822271 201.45508,55.142578 C 201.45508,55.404301 201.54297,55.615239 201.71875,55.775391 C 201.89453,55.931645 202.24609,56.091801 202.77344,56.255859 L 203.62891,56.519531 C 204.21875,56.703128 204.64257,56.933597 204.90039,57.210938 C 205.1621,57.484378 205.29296,57.837893 205.29297,58.271484 C 205.29296,58.861329 205.0664,59.326173 204.61328,59.666016 C 204.16406,60.001953 203.54296,60.169922 202.75,60.169922 C 202.34765,60.169922 201.95508,60.126953 201.57227,60.041016 C 201.18945,59.955078 200.80664,59.826172 200.42383,59.654297 M 210.16211,53.771484 L 212.17773,53.771484 L 212.17773,59.378906 L 213.19727,59.378906 L 213.19727,60 L 211.09961,60 L 211.09961,58.898438 C 210.90039,59.312501 210.64257,59.628907 210.32617,59.847656 C 210.00976,60.0625 209.64257,60.169922 209.22461,60.169922 C 208.5332,60.169922 208.02344,59.974609 207.69531,59.583984 C 207.37109,59.189454 207.20898,58.572267 207.20898,57.732422 L 207.20898,54.398438 L 206.23633,54.398438 L 206.23633,53.771484 L 208.29297,53.771484 L 208.29297,57.398438 C 208.29297,58.156252 208.38476,58.675783 208.56836,58.957031 C 208.75586,59.238282 209.08789,59.378907 209.56445,59.378906 C 210.06445,59.378907 210.44531,59.195313 210.70703,58.828125 C 210.96874,58.460939 211.0996,57.927736 211.09961,57.228516 L 211.09961,54.398438 L 210.16211,54.398438 L 210.16211,53.771484 M 219.86523,54.984375 C 220.07226,54.527349 220.33593,54.1836 220.65625,53.953125 C 220.98046,53.718756 221.35741,53.601569 221.78711,53.601562 C 222.43944,53.601569 222.92577,53.804694 223.24609,54.210938 C 223.5664,54.613287 223.72655,55.222661 223.72656,56.039062 L 223.72656,59.378906 L 224.69922,59.378906 L 224.69922,60 L 221.71094,60 L 221.71094,59.378906 L 222.64844,59.378906 L 222.64844,56.162109 C 222.64843,55.525395 222.55468,55.072271 222.36719,54.802734 C 222.17968,54.533209 221.86913,54.398443 221.43555,54.398438 C 220.95507,54.398443 220.58788,54.580084 220.33398,54.943359 C 220.08398,55.306645 219.95898,55.835942 219.95898,56.53125 L 219.95898,59.378906 L 220.89648,59.378906 L 220.89648,60 L 217.94336,60 L 217.94336,59.378906 L 218.88086,59.378906 L 218.88086,56.121094 C 218.88085,55.500005 218.7871,55.058599 218.59961,54.796875 C 218.4121,54.531255 218.10156,54.398443 217.66797,54.398438 C 217.1875,54.398443 216.82031,54.580084 216.56641,54.943359 C 216.3164,55.306645 216.1914,55.835942 216.19141,56.53125 L 216.19141,59.378906 L 217.12891,59.378906 L 217.12891,60 L 214.14062,60 L 214.14062,59.378906 L 215.11328,59.378906 L 215.11328,54.386719 L 214.08203,54.386719 L 214.08203,53.771484 L 216.19141,53.771484 L 216.19141,54.878906 C 216.39062,54.464849 216.64453,54.148443 216.95312,53.929688 C 217.26172,53.710944 217.61132,53.601569 218.00195,53.601562 C 218.48632,53.601569 218.89062,53.722663 219.21484,53.964844 C 219.53906,54.203131 219.75585,54.542974 219.86523,54.984375 M 150.16211,69.153515 L 149.59375,69.153515 C 149.58984,68.860555 149.50585,68.637899 149.3418,68.485547 C 149.18164,68.333211 148.94726,68.25704 148.63867,68.257031 C 148.23632,68.25704 147.95312,68.368368 147.78906,68.591015 C 147.625,68.809773 147.54297,69.202351 147.54297,69.76875 L 147.54297,70.571484 L 149.2832,70.571484 L 149.2832,71.198437 L 147.54297,71.198437 L 147.54297,76.178906 L 148.92578,76.178906 L 148.92578,76.8 L 145.43359,76.8 L 145.43359,76.178906 L 146.46484,76.178906 L 146.46484,71.198437 L 145.43359,71.198437 L 145.43359,70.571484 L 146.46484,70.571484 L 146.46484,69.792187 C 146.46484,69.096882 146.64453,68.571492 147.00391,68.216015 C 147.36719,67.860556 147.89843,67.682821 148.59766,67.682812 C 148.85937,67.682821 149.12109,67.706259 149.38281,67.753125 C 149.64453,67.800009 149.90429,67.872274 150.16211,67.969922 L 150.16211,69.153515 M 153.03906,76.389843 C 153.61718,76.389844 154.05273,76.161328 154.3457,75.704297 C 154.64257,75.247267 154.79101,74.573439 154.79102,73.682812 C 154.79101,72.792191 154.64257,72.120317 154.3457,71.667187 C 154.05273,71.210162 153.61718,70.981646 153.03906,70.98164 C 152.46093,70.981646 152.02343,71.210162 151.72656,71.667187 C 151.43359,72.120317 151.28711,72.792191 151.28711,73.682812 C 151.28711,74.573439 151.43554,75.247267 151.73242,75.704297 C 152.02929,76.161328 152.46484,76.389844 153.03906,76.389843 M 153.03906,76.969922 C 152.13281,76.969921 151.40429,76.671094 150.85352,76.073437 C 150.30273,75.471876 150.02734,74.675002 150.02734,73.682812 C 150.02734,72.690629 150.30078,71.895708 150.84766,71.298047 C 151.39844,70.700396 152.1289,70.401569 153.03906,70.401562 C 153.94921,70.401569 154.67773,70.700396 155.22461,71.298047 C 155.77538,71.895708 156.05077,72.690629 156.05078,73.682812 C 156.05077,74.675002 155.77538,75.471876 155.22461,76.073437 C 154.67773,76.671094 153.94921,76.969921 153.03906,76.969922 M 160.25781,76.389843 C 160.83593,76.389844 161.27148,76.161328 161.56445,75.704297 C 161.86132,75.247267 162.00976,74.573439 162.00977,73.682812 C 162.00976,72.792191 161.86132,72.120317 161.56445,71.667187 C 161.27148,71.210162 160.83593,70.981646 160.25781,70.98164 C 159.67968,70.981646 159.24218,71.210162 158.94531,71.667187 C 158.65234,72.120317 158.50586,72.792191 158.50586,73.682812 C 158.50586,74.573439 158.65429,75.247267 158.95117,75.704297 C 159.24804,76.161328 159.68359,76.389844 160.25781,76.389843 M 160.25781,76.969922 C 159.35156,76.969921 158.62304,76.671094 158.07227,76.073437 C 157.52148,75.471876 157.24609,74.675002 157.24609,73.682812 C 157.24609,72.690629 157.51953,71.895708 158.06641,71.298047 C 158.61719,70.700396 159.34765,70.401569 160.25781,70.401562 C 161.16796,70.401569 161.89648,70.700396 162.44336,71.298047 C 162.99413,71.895708 163.26952,72.690629 163.26953,73.682812 C 163.26952,74.675002 162.99413,75.471876 162.44336,76.073437 C 161.89648,76.671094 161.16796,76.969921 160.25781,76.969922 M 149.24805,87.371484 L 151.26367,87.371484 L 151.26367,92.978906 L 152.2832,92.978906 L 152.2832,93.599999 L 150.18555,93.599999 L 150.18555,92.498437 C 149.98632,92.9125 149.72851,93.228906 149.41211,93.447656 C 149.0957,93.662499 148.72851,93.769921 148.31055,93.769921 C 147.61914,93.769921 147.10937,93.574609 146.78125,93.183984 C 146.45703,92.789453 146.29492,92.172266 146.29492,91.332421 L 146.29492,87.998437 L 145.32227,87.998437 L 145.32227,87.371484 L 147.37891,87.371484 L 147.37891,90.998437 C 147.3789,91.756251 147.4707,92.275782 147.6543,92.557031 C 147.84179,92.838281 148.17382,92.978906 148.65039,92.978906 C 149.15039,92.978906 149.53125,92.795313 149.79297,92.428124 C 150.05468,92.060938 150.18554,91.527736 150.18555,90.828515 L 150.18555,87.998437 L 149.24805,87.998437 L 149.24805,87.371484 M 155.19531,92.978906 L 156.21484,92.978906 L 156.21484,93.599999 L 153.08008,93.599999 L 153.08008,92.978906 L 154.11719,92.978906 L 154.11719,85.103906 L 153.08008,85.103906 L 153.08008,84.482812 L 155.19531,84.482812 L 155.19531,92.978906 M 159.03906,92.978906 L 160.05859,92.978906 L 160.05859,93.599999 L 156.92383,93.599999 L 156.92383,92.978906 L 157.96094,92.978906 L 157.96094,85.103906 L 156.92383,85.103906 L 156.92383,84.482812 L 159.03906,84.482812 L 159.03906,92.978906 M 165.19727,91.642968 L 165.19727,90.324609 L 163.80859,90.324609 C 163.27343,90.324612 162.875,90.439846 162.61328,90.670312 C 162.35156,90.900783 162.2207,91.254299 162.2207,91.730859 C 162.2207,92.164454 162.35351,92.508204 162.61914,92.762109 C 162.88476,93.016016 163.24414,93.142969 163.69727,93.142968 C 164.14648,93.142969 164.50781,93.004297 164.78125,92.726953 C 165.05859,92.44961 165.19726,92.088282 165.19727,91.642968 M 166.27539,89.709374 L 166.27539,92.978906 L 167.23633,92.978906 L 167.23633,93.599999 L 165.19727,93.599999 L 165.19727,92.926171 C 164.95898,93.215234 164.68359,93.428125 164.37109,93.564843 C 164.05859,93.701562 163.69336,93.769921 163.27539,93.769921 C 162.58398,93.769921 162.03515,93.586328 161.62891,93.21914 C 161.22266,92.851953 161.01953,92.35586 161.01953,91.730859 C 161.01953,91.08633 161.25195,90.586331 161.7168,90.230859 C 162.18164,89.875394 162.83789,89.69766 163.68555,89.697656 L 165.19727,89.697656 L 165.19727,89.269921 C 165.19726,88.79727 165.05273,88.432036 164.76367,88.174218 C 164.47851,87.912505 164.07617,87.781646 163.55664,87.78164 C 163.12695,87.781646 162.78515,87.879302 162.53125,88.074609 C 162.27734,88.269927 162.11914,88.558989 162.05664,88.941796 L 161.5,88.941796 L 161.5,87.682031 C 161.875,87.521881 162.23828,87.40274 162.58984,87.324609 C 162.94531,87.242584 163.29101,87.201568 163.62695,87.201562 C 164.49023,87.201568 165.14648,87.416412 165.5957,87.846093 C 166.04882,88.27188 166.27538,88.892973 166.27539,89.709374 M 173.78711,88.584374 C 173.99413,88.127349 174.25781,87.783599 174.57812,87.553124 C 174.90234,87.318756 175.27929,87.201568 175.70898,87.201562 C 176.36132,87.201568 176.84765,87.404693 177.16797,87.810937 C 177.48827,88.213286 177.64843,88.82266 177.64844,89.639062 L 177.64844,92.978906 L 178.62109,92.978906 L 178.62109,93.599999 L 175.63281,93.599999 L 175.63281,92.978906 L 176.57031,92.978906 L 176.57031,89.762109 C 176.5703,89.125395 176.47655,88.67227 176.28906,88.402734 C 176.10155,88.133208 175.79101,87.998443 175.35742,87.998437 C 174.87695,87.998443 174.50976,88.180083 174.25586,88.543359 C 174.00585,88.906645 173.88085,89.435941 173.88086,90.131249 L 173.88086,92.978906 L 174.81836,92.978906 L 174.81836,93.599999 L 171.86523,93.599999 L 171.86523,92.978906 L 172.80273,92.978906 L 172.80273,89.721093 C 172.80273,89.100004 172.70898,88.658598 172.52148,88.396874 C 172.33398,88.131255 172.02343,87.998443 171.58984,87.998437 C 171.10937,87.998443 170.74218,88.180083 170.48828,88.543359 C 170.23828,88.906645 170.11328,89.435941 170.11328,90.131249 L 170.11328,92.978906 L 171.05078,92.978906 L 171.05078,93.599999 L 168.0625,93.599999 L 168.0625,92.978906 L 169.03516,92.978906 L 169.03516,87.986718 L 168.00391,87.986718 L 168.00391,87.371484 L 170.11328,87.371484 L 170.11328,88.478906 C 170.3125,88.064849 170.5664,87.748443 170.875,87.529687 C 171.18359,87.310943 171.5332,87.201568 171.92383,87.201562 C 172.4082,87.201568 172.81249,87.322662 173.13672,87.564843 C 173.46093,87.80313 173.67773,88.142974 173.78711,88.584374 M 185.13086,91.730859 C 184.97851,92.394923 184.68554,92.900781 184.25195,93.248437 C 183.81835,93.596093 183.25781,93.769921 182.57031,93.769921 C 181.66406,93.769921 180.93554,93.471093 180.38477,92.873437 C 179.83398,92.271876 179.55859,91.475002 179.55859,90.482812 C 179.55859,89.486722 179.83398,88.691801 180.38477,88.098046 C 180.93554,87.500396 181.66406,87.201568 182.57031,87.201562 C 182.96484,87.201568 183.35742,87.248443 183.74805,87.342187 C 184.13867,87.432037 184.53124,87.570709 184.92578,87.758203 L 184.92578,89.351953 L 184.29883,89.351953 C 184.21679,88.805082 184.0371,88.406645 183.75977,88.15664 C 183.48632,87.906646 183.09375,87.781646 182.58203,87.78164 C 182,87.781646 181.56054,88.008208 181.26367,88.461328 C 180.96679,88.910551 180.81836,89.584378 180.81836,90.482812 C 180.81836,91.381252 180.96484,92.057032 181.25781,92.510156 C 181.55468,92.963281 181.99609,93.189844 182.58203,93.189843 C 183.04687,93.189844 183.41796,93.06875 183.69531,92.826562 C 183.97265,92.584375 184.1621,92.219141 184.26367,91.730859 L 185.13086,91.730859 M 189.27344,93.189843 C 189.85156,93.189844 190.2871,92.961328 190.58008,92.504296 C 190.87695,92.047267 191.02539,91.373439 191.02539,90.482812 C 191.02539,89.592191 190.87695,88.920317 190.58008,88.467187 C 190.2871,88.010161 189.85156,87.781646 189.27344,87.78164 C 188.69531,87.781646 188.25781,88.010161 187.96094,88.467187 C 187.66797,88.920317 187.52148,89.592191 187.52148,90.482812 C 187.52148,91.373439 187.66992,92.047267 187.9668,92.504296 C 188.26367,92.961328 188.69922,93.189844 189.27344,93.189843 M 189.27344,93.769921 C 188.36718,93.769921 187.63867,93.471093 187.08789,92.873437 C 186.53711,92.271876 186.26172,91.475002 186.26172,90.482812 C 186.26172,89.490629 186.53516,88.695707 187.08203,88.098046 C 187.63281,87.500396 188.36328,87.201568 189.27344,87.201562 C 190.18359,87.201568 190.9121,87.500396 191.45898,88.098046 C 192.00976,88.695707 192.28515,89.490629 192.28516,90.482812 C 192.28515,91.475002 192.00976,92.271876 191.45898,92.873437 C 190.9121,93.471093 190.18359,93.769921 189.27344,93.769921 M 193.80273,92.990624 C 193.80273,92.771875 193.87695,92.586329 194.02539,92.433984 C 194.17383,92.281641 194.35937,92.20547 194.58203,92.205468 C 194.79687,92.20547 194.98047,92.281641 195.13281,92.433984 C 195.28515,92.586329 195.36133,92.771875 195.36133,92.990624 C 195.36133,93.205469 195.28515,93.389062 195.13281,93.541406 C 194.98047,93.693749 194.79687,93.769921 194.58203,93.769921 C 194.35937,93.769921 194.17383,93.695702 194.02539,93.547265 C 193.87695,93.394922 193.80273,93.209375 193.80273,92.990624"
       id="text3211"
       style="font-size:12px;font-style:normal;font-variant:normal;font-weight:normal;font-stretch:normal;text-align:start;line-height:139.99999762%;writing-mode:lr-tb;text-anchor:start;fill:#000000;fill-opacity:1;stroke:none;stroke-width:1px;stroke-linecap:butt;stroke-linejoin:miter;stroke-opacity:1;font-family:Bitstream Vera Serif;-inkscape-font-specification:Bitstream Vera Serif" />
    <path
       d="M 115,72.519216 L 137,72.519216"
       id="path3257"
       style="fill:none;fill-rule:evenodd;stroke:#000000;stroke-width:2;stroke-linecap:butt;stroke-linejoin:miter;marker-end:url(#Arrow2Mend);stroke-miterlimit:4;stroke-dasharray:none;stroke-opacity:1" />
  </g>
</svg>
